<?xml version="1.0" encoding="UTF-8" standalone="no"?>
<!DOCTYPE svg PUBLIC "-//W3C//DTD SVG 1.1//EN"
 "http://www.w3.org/Graphics/SVG/1.1/DTD/svg11.dtd">
<!-- Generated by graphviz version 2.40.1 (20161225.0304)
 -->
<!-- Title: employeedb Pages: 1 -->
<svg width="374pt" height="219pt"
 viewBox="0.00 0.00 374.00 219.00" xmlns="http://www.w3.org/2000/svg" xmlns:xlink="http://www.w3.org/1999/xlink">
<g id="graph0" class="graph" transform="scale(1 1) rotate(0) translate(4 215)">
<title>employeedb</title>
<polygon fill="#ffffff" stroke="transparent" points="-4,4 -4,-215 370,-215 370,4 -4,4"/>
<!-- public.employees -->
<g id="node1" class="node">
<title>public.employees</title>
<polygon fill="#efefef" stroke="transparent" points="43,-132.5 43,-167.5 323,-167.5 323,-132.5 43,-132.5"/>
<polygon fill="none" stroke="#000000" points="43,-132.5 43,-167.5 323,-167.5 323,-132.5 43,-132.5"/>
<text text-anchor="start" x="49.7027" y="-145.3" font-family="Arial Bold" font-size="18.00" fill="#000000">public.employees</text>
<text text-anchor="start" x="188.7293" y="-145.3" font-family="Arial" font-size="14.00" fill="#000000">    </text>
<text text-anchor="start" x="222.9341" y="-145.3" font-family="Arial" font-size="14.00" fill="#666666">[BASE TABLE]</text>
<polygon fill="none" stroke="#000000" points="43,-102.5 43,-132.5 323,-132.5 323,-102.5 43,-102.5"/>
<text text-anchor="start" x="50" y="-113.9" font-family="Arial" font-size="14.00" fill="#000000">id    </text>
<text text-anchor="start" x="95.094" y="-113.9" font-family="Arial" font-size="14.00" fill="#666666">[varchar(10)]</text>
<polygon fill="none" stroke="#000000" points="43,-72.5 43,-102.5 323,-102.5 323,-72.5 43,-72.5"/>
<text text-anchor="start" x="50" y="-83.9" font-family="Arial" font-size="14.00" fill="#000000">first_name    </text>
<text text-anchor="start" x="149.5442" y="-83.9" font-family="Arial" font-size="14.00" fill="#666666">[varchar(100)]</text>
<polygon fill="none" stroke="#000000" points="43,-42.5 43,-72.5 323,-72.5 323,-42.5 43,-42.5"/>
<text text-anchor="start" x="50" y="-53.9" font-family="Arial" font-size="14.00" fill="#000000">last_name    </text>
<text text-anchor="start" x="148.7756" y="-53.9" font-family="Arial" font-size="14.00" fill="#666666">[varchar(100)]</text>
</g>
</g>
</svg>
